<?xml version="1.0" encoding="UTF-8"?>
<svg id="Capa_1" data-name="Capa 1" xmlns="http://www.w3.org/2000/svg" viewBox="0 0 223 332.11">
  <defs>
    <style>
      .cls-1, .cls-2, .cls-3 {
        fill: #fff;
      }
      .cls-2 {
        fill-rule: evenodd;
      }
      .cls-3 {
        clip-rule: evenodd;
      }
      .cls-4 {
        clip-path: url(#clippath);
      }
    </style>
    <clipPath id="clippath">
      <path class="cls-3" d="M110.89,0l66.2,103.3-74.6,91.48c-15.11-14.93-30.22-29.85-45.34-44.78-3.92,4.85-7.84,9.7-11.75,14.55,19.78,20.15,39.55,40.3,59.33,60.45l83.44-104.4.54-.68.54-.68.36-.45.18-.23.54-.68.54-.68.54-.68.04-.05.51-.63.54-.68.54-.68.26-.32.28-.36.54-.68.54-.68.48-.6.06-.08.54-.68.54-.68.54-.68.16-.2.38-.48.54-.68.54-.68.38-.47.16-.2.54-.68.54-.68.54-.68.06-.07.48-.61.54-.68.54-.68.28-.35.26-.33.54-.68.54-.68.5-.62.04-.05.54-.68.54-.68.54-.68.18-.22.36-.45.54-.68.54-.68.4-.5.14-.18.54-.68.54-.68.54-.68.08-.1.46-.58.54-.68.54-.68.3-.37.24-.3.54-.68.54-.68.52-.65.02-.03.54-.68.54-.68.54-.68.2-.25.34-.43.54-.68.54-.68.42-.53.12-.15.54-.68.54-.68.54-.68.1-.12.44-.55.54-.68.54-.68.32-.4.22-.28.54-.68.54-.68.54-.68c.19,14.74.37,29.48-.37,42.54-.06,1.06-.13,2.11-.2,3.15l-115.85,150.21c-24.63-23.69-49.25-47.39-73.88-71.08-1.31,2.05-2.61,4.1-3.45,9.33-.84,5.22-1.21,13.62-.37,20.9.84,7.28,2.89,13.43,6.44,20.43,3.54,7,8.58,14.83,16.14,22.39,7.56,7.56,17.63,14.83,29.85,19.22,12.22,4.38,26.59,5.88,38.71,4.94,12.13-.93,22.02-4.29,31.53-9.52,9.52-5.22,18.66-12.31,25.37-21.08,6.72-8.77,11.01-19.22,13.15-29.57,2.15-10.35,2.15-20.62,1.59-28.08-.56-7.46-1.68-12.13-2.8-16.79,8.12-8.67,16.24-17.34,22.59-23.78,3.48,9.42,6.96,18.84,8.79,29.52,1.83,10.68,2.02,22.62.62,34.28-1.4,11.66-4.38,23.04-8.12,32.46-3.73,9.42-8.21,16.88-16.32,25.47-8.12,8.58-19.87,18.28-29.94,24.81-10.07,6.53-18.47,9.89-27.52,12.13-9.05,2.24-18.75,3.36-29.85,2.89-11.1-.47-23.6-2.52-36.19-7.65-12.59-5.13-25.28-13.34-36.01-23.41-10.73-10.07-19.5-22.02-25.56-34.8-6.06-12.78-9.42-26.4-10.63-38.62-1.21-12.22-.28-23.04,1.96-34.42,2.24-11.38,5.78-23.32,14.37-40.11,8.58-16.79,22.2-38.43,38.71-64.74C72.08,61.94,91.49,30.97,110.89,0"/>
    </clipPath>
  </defs>
  <path class="cls-2" d="M110.89,0l66.2,103.3-74.6,91.48c-15.11-14.93-30.22-29.85-45.34-44.78-3.92,4.85-7.84,9.7-11.75,14.55,19.78,20.15,39.55,40.3,59.33,60.45l83.44-104.4.54-.68.54-.68.36-.45.18-.23.54-.68.54-.68.54-.68.04-.05.51-.63.54-.68.54-.68.26-.32.28-.36.54-.68.54-.68.48-.6.06-.08.54-.68.54-.68.54-.68.16-.2.38-.48.54-.68.54-.68.38-.47.16-.2.54-.68.54-.68.54-.68.06-.07.48-.61.54-.68.54-.68.28-.35.26-.33.54-.68.54-.68.5-.62.04-.05.54-.68.54-.68.54-.68.18-.22.36-.45.54-.68.54-.68.4-.5.14-.18.54-.68.54-.68.54-.68.08-.1.46-.58.54-.68.54-.68.3-.37.24-.3.54-.68.54-.68.52-.65.02-.03.54-.68.54-.68.54-.68.2-.25.34-.43.54-.68.54-.68.42-.53.12-.15.54-.68.54-.68.54-.68.1-.12.44-.55.54-.68.54-.68.32-.4.22-.28.54-.68.54-.68.54-.68c.19,14.74.37,29.48-.37,42.54-.06,1.06-.13,2.11-.2,3.15l-115.85,150.21c-24.63-23.69-49.25-47.39-73.88-71.08-1.31,2.05-2.61,4.1-3.45,9.33-.84,5.22-1.21,13.62-.37,20.9.84,7.28,2.89,13.43,6.44,20.43,3.54,7,8.58,14.83,16.14,22.39,7.56,7.56,17.63,14.83,29.85,19.22,12.22,4.38,26.59,5.88,38.71,4.94,12.13-.93,22.02-4.29,31.53-9.52,9.52-5.22,18.66-12.31,25.37-21.08,6.72-8.77,11.01-19.22,13.15-29.57,2.15-10.35,2.15-20.62,1.59-28.08-.56-7.46-1.68-12.13-2.8-16.79,8.12-8.67,16.24-17.34,22.59-23.78,3.48,9.42,6.96,18.84,8.79,29.52,1.83,10.68,2.02,22.62.62,34.28-1.4,11.66-4.38,23.04-8.12,32.46-3.73,9.42-8.21,16.88-16.32,25.47-8.12,8.58-19.87,18.28-29.94,24.81-10.07,6.53-18.47,9.89-27.52,12.13-9.05,2.24-18.75,3.36-29.85,2.89-11.1-.47-23.6-2.52-36.19-7.65-12.59-5.13-25.28-13.34-36.01-23.41-10.73-10.07-19.5-22.02-25.56-34.8-6.06-12.78-9.42-26.4-10.63-38.62-1.21-12.22-.28-23.04,1.96-34.42,2.24-11.38,5.78-23.32,14.37-40.11,8.58-16.79,22.2-38.43,38.71-64.74C72.08,61.94,91.49,30.97,110.89,0"/>
  <g class="cls-4">
    <rect class="cls-1" x="-.68" width="223.88" height="332.47"/>
  </g>
</svg>
